HIERARCHY
ROOT Hips
{
  OFFSET 70.0231 56.77 366.064
  CHANNELS 6 Xposition Yposition Zposition Zrotation Xrotation Yrotation
  JOINT RightUpLeg
  {
    OFFSET -8.9458 -8.66707 0.101652
    CHANNELS 3 Zrotation Xrotation Yrotation
    JOINT RightLeg
    {
      OFFSET 0 -44.4227 1.3727
      CHANNELS 3 Zrotation Xrotation Yrotation
      JOINT RightFoot
      {
        OFFSET 0.253549 -42.0924 -1.46059
        CHANNELS 3 Zrotation Xrotation Yrotation
        JOINT RightToes
        {
          OFFSET 0.04 -4.41509 8.4991
          CHANNELS 3 Zrotation Xrotation Yrotation
          End Site
          {
            OFFSET -0.08 -0.137448 9.77979
          }
        }
      }
    }
  }
  JOINT Spine
  {
    OFFSET 0 11.8905 0
    CHANNELS 3 Zrotation Xrotation Yrotation
    JOINT Spine1
    {
      OFFSET 0 25.6574 0.127663
      CHANNELS 3 Zrotation Xrotation Yrotation
      JOINT HEad
      {
        OFFSET 0 8.73416 0.011341
        CHANNELS 3 Zrotation Xrotation Yrotation
        End Site
        {
          OFFSET -0.29 12.7742 2.51395
        }
      }
      JOINT LeftShoulder1
      {
        OFFSET 8.99 -0.362252 -0.22
        CHANNELS 3 Zrotation Xrotation Yrotation
        JOINT LeftArm
        {
          OFFSET 10.2827 -0.00338 0.322123
          CHANNELS 3 Zrotation Xrotation Yrotation
          JOINT LeftForeArm
          {
            OFFSET 32.7669 0.099144 -1.42434
            CHANNELS 3 Zrotation Xrotation Yrotation
            JOINT LeftHand
            {
              OFFSET 27.5643 0.085362 1.02216
              CHANNELS 3 Zrotation Xrotation Yrotation
              End Site
              {
                OFFSET 16.7443 -0.6 1.50291
              }
            }
          }
        }
      }
      JOINT RightShoulder
      {
        OFFSET -8.99 -0.362252 -0.22
        CHANNELS 3 Zrotation Xrotation Yrotation
        JOINT RightArm
        {
          OFFSET -10.2827 -0.00338 0.322123
          CHANNELS 3 Zrotation Xrotation Yrotation
          JOINT RightForeArm
          {
            OFFSET -32.8971 0.099144 -1.42434
            CHANNELS 3 Zrotation Xrotation Yrotation
            JOINT RightHand
            {
              OFFSET -27.4921 0.085362 1.02216
              CHANNELS 3 Zrotation Xrotation Yrotation
              End Site
              {
                OFFSET -16.6312 -0.6 1.50291
              }
            }
          }
        }
      }
    }
  }
  JOINT LeftUpLeg
  {
    OFFSET 8.9458 -8.66707 0.101652
    CHANNELS 3 Zrotation Xrotation Yrotation
    JOINT LeftLeg
    {
      OFFSET 0 -44.4227 1.3727
      CHANNELS 3 Zrotation Xrotation Yrotation
      JOINT LeftFoot
      {
        OFFSET -0.253549 -42.0924 -1.46059
        CHANNELS 3 Zrotation Xrotation Yrotation
        JOINT LeftToes
        {
          OFFSET -0.04 -4.41509 8.4991
          CHANNELS 3 Zrotation Xrotation Yrotation
          End Site
          {
            OFFSET 0.08 -0.047448 9.77979
          }
        }
      }
    }
  }
}
MOTION
Frames:	18
Frame Time:	0.0166667
-35.2781	60.7938	35.911	1.00895	1.49927	169.667	-86.5684	-46.868	-70.2818	6.28141	80.1544	-21.4407	11.7515	-0.57046	-1.14423	4.62E-02	5.34E-04	6.63E-01	-0.687123	3.18871	-1.39311	-1.29926	6.39578	-2.75439	3.68286	48.0724	12.5281	-7.95E-16	0.00E+00	3.18E-15	-41.2076	59.5474	-45.6195	-39.2221	29.0666	-90.5061	-22.2771	5.88212	6.47587	-7.95E-16	0.00E+00	3.18E-15	44.8517	60.8339	40.3799	22.3068	5.28408	92.6979	20.812	-0.356661	8.28791	-4.42E+01	-8.41E+01	-4.41E+01	8.53083	76.7511	-36.5617	-7.06577	-0.736075	-2.17098	1.59E-14	3.10E-14	3.18E-15
-35.4276	60.852	35.923	1.15649	1.53415	169.465	-86.3137	-47.2058	-70.0981	6.06655	80.1117	-21.266	11.7777	-0.528272	-1.21137	4.62E-02	5.34E-04	6.63E-01	-0.680881	3.21149	-1.36184	-1.288	6.44085	-2.69187	3.43575	47.781	12.8222	-3.98E-16	-3.18E-15	3.18E-15	-41.5718	59.4079	-45.253	-39.1139	29.2607	-90.4554	-22.2423	5.82257	6.49289	-3.98E-16	-3.18E-15	3.18E-15	44.8647	60.8238	40.3642	22.1618	5.30833	92.7353	20.8364	-0.425046	8.28508	-4.33E+01	-8.41E+01	-4.33E+01	9.07502	76.7352	-36.9932	-7.04138	-0.902315	-2.15991	1.59E-14	3.18E-14	3.18E-15
-35.5553	60.902	35.908	1.29737	1.46958	169.318	-86.1356	-47.4953	-70.117	5.60966	80.0833	-20.7877	11.7841	-0.55758	-1.26972	4.62E-02	5.34E-04	6.63E-01	-0.672446	3.22969	-1.34968	-1.27138	6.47693	-2.66783	3.20858	47.4598	13.1433	-3.98E-16	-1.59E-15	6.36E-15	-41.9042	59.2313	-44.8741	-39.0835	29.4621	-90.3941	-22.2436	5.83203	6.53032	-3.98E-16	-1.59E-15	6.36E-15	44.8777	60.8125	40.335	22.0072	5.34433	92.8387	20.8061	-0.423522	8.32932	-43.2776	-8.41E+01	-43.3906	9.58363	76.7359	-37.4477	-6.99902	-0.968927	-2.18979	1.59E-14	3.26E-14	3.18E-15
-35.659	60.9296	35.873	1.46507	1.34475	169.172	-85.9822	-47.7329	-70.1963	5.42238	80.0732	-20.59	11.8005	-0.620701	-1.24069	4.62E-02	5.34E-04	0.662642	-0.654724	3.25851	-1.31623	-1.23714	6.53382	-2.60157	3.05728	47.1342	13.4093	-3.98E-16	0.00E+00	-1.59E-15	-42.0502	59.0858	-44.6679	-39.1302	29.6572	-90.313	-22.2455	5.90501	6.59295	-3.98E-16	0.00E+00	-1.59E-15	44.9601	60.7614	40.2272	21.7728	5.38635	93.0352	20.7191	-0.382014	8.36882	-4.37E+01	-8.42E+01	-4.39E+01	10.1391	76.7797	-37.9452	-6.94524	-0.930276	-2.23752	1.51E-14	3.42E-14	9.54E-15
-35.7437	60.9433	35.838	1.59499	1.23616	169.063	-85.8793	-47.8825	-70.2234	5.67395	80.0753	-20.8539	11.8332	-0.689286	-1.16591	4.62E-02	5.34E-04	0.662642	-0.65226	3.28711	-1.27619	-1.23391	6.59055	-2.52121	2.96397	46.8998	13.6296	-1.99E-15	-1.59E-15	0.00E+00	-42.0991	59.0506	-44.5505	-39.1681	29.79	-90.2634	-22.2719	5.97002	6.67183	-1.99E-15	-1.59E-15	0.00E+00	45.184	60.739	39.9642	21.4724	5.39929	93.3014	20.6472	-0.341392	8.38242	-4.43E+01	-8.43E+01	-4.45E+01	10.698	76.8201	-38.4399	-6.93374	-0.849076	-2.26536	1.43E-14	3.18E-14	6.36E-15
-35.7834	60.9552	35.794	1.76231	1.16062	168.964	-85.6982	-47.9745	-70.2175	5.87531	80.0798	-21.1105	11.8657	-0.732959	-1.07283	4.62E-02	5.34E-04	6.63E-01	-0.64106	3.32264	-1.21547	-1.21428	6.66075	-2.39986	2.91795	46.7754	13.7954	1.99E-15	0.00E+00	-1.59E-15	-42.0431	59.1399	-44.5513	-39.2063	29.8375	-90.2244	-22.2908	6.03978	6.7496	1.99E-15	0.00E+00	-1.59E-15	45.5394	60.7075	39.5657	21.1581	5.40295	93.5939	20.6053	-0.339009	8.39807	-4.41E+01	-8.44E+01	-4.44E+01	11.3129	76.8655	-38.9655	-7.01486	-0.750386	-2.45877	1.35E-14	3.26E-14	6.36E-15
-35.7555	60.9571	35.743	1.98475	1.08468	168.862	-85.4781	-48.0539	-70.2323	6.22089	80.1143	-21.539	11.8583	-0.736361	-0.988737	4.62E-02	5.34E-04	6.63E-01	-0.60965	3.3589	-1.1458	-1.15472	6.73195	-2.26174	2.87996	46.7633	13.9631	-1.19E-15	-1.59E-15	-1.59E-15	-41.925	59.2801	-44.6275	-39.3167	29.7863	-90.1509	-22.3103	6.12828	6.82171	-1.19E-15	-1.59E-15	-1.59E-15	45.9384	60.646	39.1302	20.8926	5.4405	93.86	20.5829	-0.359734	8.44503	-43.0135	-8.46E+01	-43.433	11.991	76.9384	-39.6098	-7.17726	-0.647119	-2.73416	1.43E-14	3.50E-14	1.27E-14
-35.6584	60.9466	35.694	2.26916	1.09752	168.742	-85.0608	-48.1458	-70.1248	6.31557	80.1305	-21.7198	11.8113	-0.639532	-0.9149	4.62E-02	5.34E-04	6.63E-01	-0.557207	3.40709	-1.0675	-1.05337	6.82662	-2.10751	2.85306	46.923	14.1214	7.95E-16	0.00E+00	1.59E-15	-41.8742	59.4769	-44.6521	-39.4664	29.653	-90.0524	-22.3797	6.22936	6.86249	7.95E-16	0.00E+00	1.59E-15	46.3882	60.5885	38.6365	20.6897	5.53789	94.0748	20.5567	-0.372513	8.48692	-4.04E+01	-8.48E+01	-40.9659	12.5347	77.0365	-40.2003	-7.35646	-0.456133	-2.90995	1.51E-14	3.18E-14	3.18E-15
-35.5039	60.9286	35.641	2.46094	1.17056	168.696	-84.7157	-48.0529	-69.8932	6.63147	80.0784	-21.9925	11.8029	-0.379031	-0.849475	4.62E-02	5.34E-04	6.63E-01	-0.53149	3.45029	-1.01567	-1.00421	6.91212	-2.00485	2.83056	47.2286	14.2707	0.00E+00	0.00E+00	0.00E+00	-41.8596	59.7117	-44.6576	-39.581	29.4836	-89.9807	-22.4836	6.30038	6.87551	0.00E+00	0.00E+00	0.00E+00	46.7604	60.5526	38.2381	20.5034	5.62653	94.2366	20.539	-0.385673	8.49551	-3.73E+01	-8.50E+01	-3.79E+01	12.7878	77.1461	-40.5507	-7.4965	-0.20802	-3.05121	1.59E-14	3.34E-14	6.36E-15
-35.3032	60.8968	35.578	2.60924	1.25388	168.657	-84.4093	-47.8396	-69.5981	7.23311	79.9304	-22.4379	11.8134	0.0425568	-0.794523	4.62E-02	5.34E-04	6.63E-01	-0.516575	3.48073	-0.969883	-0.976608	6.97238	-1.91375	2.8134	47.6406	14.4057	-7.95E-16	0.00E+00	-1.59E-15	-41.8486	59.9589	-44.6849	-39.65	29.2933	-89.9635	-22.6307	6.3643	6.9237	-7.95E-16	0.00E+00	-1.59E-15	46.9558	60.5568	38.0495	20.3162	5.65522	94.3495	20.5279	-0.423171	8.46878	-3.38E+01	-8.51E+01	-34.4481	12.9401	77.2758	-40.7894	-7.61017	0.0920446	-3.19976	1.43E-14	3.34E-14	0.00E+00
-35.0743	60.8473	35.51	2.74264	1.3861	168.624	-84.0863	-47.5783	-69.3075	7.74551	79.7911	-22.7473	11.7855	0.466906	-0.781803	4.62E-02	5.34E-04	6.63E-01	-0.510249	3.4906	-0.953421	-0.964778	6.99189	-1.88107	2.73384	48.1903	14.6222	-7.95E-16	-1.59E-15	-3.18E-15	-42.0189	60.193	-44.5308	-39.6512	29.1376	-89.9995	-22.7612	6.45688	7.00019	-7.95E-16	-1.59E-15	-3.18E-15	46.9804	60.7165	38.067	20.143	5.58354	94.4231	20.5451	-0.471075	8.39866	-3.00E+01	-8.52E+01	-30.7306	13.1016	77.4245	-41.0161	-7.72561	0.357776	-3.2863	1.55E-14	3.10E-14	9.54E-15
-34.8333	60.7888	35.447	2.81311	1.52963	168.648	-83.8639	-47.2883	-69.0907	8.06072	79.7387	-22.9413	11.7932	0.833868	-0.776939	4.62E-02	5.34E-04	6.63E-01	-0.521459	3.4808	-0.962737	-0.986839	6.97255	-1.89912	2.66662	48.7494	14.8289	3.98E-16	1.59E-15	-1.59E-15	-42.2223	60.3871	-44.3482	-39.566	29.0505	-90.0969	-22.8526	6.55744	7.07346	3.98E-16	1.59E-15	-1.59E-15	46.8529	60.9444	38.2379	19.9907	5.43211	94.479	20.57	-0.545011	8.28761	-2.71E+01	-8.52E+01	-2.78E+01	13.3584	77.5379	-41.3123	-7.87582	0.591235	-3.41247	1.43E-14	3.14E-14	3.18E-15
-34.6052	60.7307	35.398	2.77444	1.66567	168.76	-83.811	-46.9602	-68.9732	8.0343	79.7576	-22.8398	11.8622	1.12781	-0.828856	4.62E-02	5.34E-04	6.63E-01	-0.56134	3.45707	-0.994186	-1.06527	6.926	-1.95991	2.64979	49.1655	14.9692	-3.98E-16	-1.59E-15	0.00E+00	-42.3714	60.5233	-44.2312	-39.4267	29.0215	-90.2278	-22.9115	6.57702	7.14653	-3.98E-16	-1.59E-15	0.00E+00	46.6598	61.1433	38.4537	19.8446	5.26476	94.5199	20.5861	-0.646559	8.17826	-2.58E+01	-8.52E+01	-2.64E+01	13.6842	77.5905	-41.6798	-8.01598	0.745844	-3.33587	1.59E-14	3.02E-14	6.36E-15
-34.3933	60.6828	35.373	2.7108	1.83135	168.852	-83.7653	-46.6764	-68.811	7.84508	79.7822	-22.5685	11.978	1.40076	-0.895183	4.62E-02	5.34E-04	6.63E-01	-0.609139	3.43483	-1.01167	-1.16042	6.8825	-1.99222	2.63746	49.4316	15.0834	-7.95E-16	0.00E+00	-3.18E-15	-42.4505	60.6288	-44.2059	-39.3233	29.0061	-90.332	-22.9315	6.50733	7.2298	-7.95E-16	0.00E+00	-3.18E-15	46.4956	61.2963	38.608	19.7345	5.12848	94.5275	20.5818	-0.712236	8.10694	-2.46E+01	-8.50E+01	-25.0954	13.9796	77.5964	-42.0651	-8.18022	0.81971	-3.27218	1.71E-14	3.54E-14	9.54E-15
-34.2064	60.6446	35.363	2.68653	2.0042	168.898	-83.6609	-46.4079	-68.5337	8.23102	79.7715	-22.832	12.0698	1.61236	-0.930925	4.62E-02	5.34E-04	6.63E-01	-0.645674	3.41434	-1.01181	-1.234	6.84215	-1.99047	2.59011	49.5959	15.2313	3.98E-16	-4.77E-15	1.59E-15	-42.4282	60.7554	-44.3475	-39.2689	28.9193	-90.3573	-22.8961	6.37201	7.30645	3.98E-16	-4.77E-15	1.59E-15	46.3638	61.4096	38.7181	19.6533	5.0225	94.4935	20.5561	-0.784095	8.10426	-2.32E+01	-8.49E+01	-23.651	14.2265	77.5855	-42.4432	-8.33384	0.873132	-3.11957	1.47E-14	3.10E-14	1.27E-14
-34.0388	60.613	35.369	2.69643	2.22596	168.921	-83.4622	-46.1378	-68.0485	9.40179	79.7278	-23.8389	12.0994	1.76042	-0.971484	4.62E-02	5.34E-04	6.63E-01	-0.676128	3.40266	-1.00493	-1.29585	6.81923	-1.97284	2.50406	49.7389	15.4279	-7.95E-16	1.59E-15	0.00E+00	-42.1814	60.9831	-44.781	-39.3451	28.6459	-90.3021	-22.829	6.2454	7.37546	-7.95E-16	1.59E-15	0.00E+00	46.2828	61.5243	38.7915	19.6952	4.91637	94.3844	20.5038	-0.856529	8.16075	-2.14E+01	-84.678	-21.9283	14.3164	77.5789	-42.6683	-8.45844	0.906113	-3.02771	1.63E-14	3.10E-14	9.54E-15
-33.8902	60.5872	35.389	2.75673	2.48574	168.931	-83.1523	-45.8891	-67.4526	10.6751	79.6612	-24.9408	12.1004	1.8461	-1.00108	4.62E-02	5.34E-04	6.63E-01	-0.698068	3.38305	-0.998235	-1.34036	6.78033	-1.96038	2.35327	49.9378	15.7055	0.00E+00	0.00E+00	1.59E-15	-41.7407	61.3112	-45.387	-39.6239	28.2289	-90.2062	-22.7718	6.156	7.4344	0.00E+00	0.00E+00	1.59E-15	46.3057	61.7215	38.8248	19.8785	4.77181	94.1757	20.4278	-0.93793	8.22127	-1.95E+01	-8.44E+01	-2.01E+01	14.3038	77.5876	-42.7618	-8.56693	0.978026	-2.98607	1.51E-14	3.30E-14	3.18E-15
-33.753	60.5658	35.421	2.81161	2.77723	168.936	-82.8261	-45.6732	-66.8582	11.758	79.6139	-25.8872	12.0564	1.85719	-1.02245	4.62E-02	5.34E-04	6.63E-01	-0.726773	3.34969	-0.999147	-1.39838	6.71409	-1.96082	2.10751	50.188	16.0939	7.95E-16	0.00E+00	-1.59E-15	-41.3667	61.5839	-45.8556	-39.9859	27.9209	-90.1849	-22.6881	6.05206	7.47968	7.95E-16	0.00E+00	-1.59E-15	46.3771	61.9896	38.8695	20.0461	4.56234	93.9001	20.3446	-1.04208	8.28098	-1.75E+01	-8.42E+01	-1.82E+01	14.2095	77.6081	-42.7556	-8.66073	1.01138	-2.95393	1.47E-14	3.14E-14	3.18E-15
